# xmcd CD database file
#
# Track frame offsets:
#	150
#	10080
#	19712
#	32213
#	43862
#	54539
#	63837
#	74720
#	85561
#	98314
#	107803
#	116911
#	128446
#	143068
#	152989
#	162225
#	175808
#	189011
#	203448
#	214444
#	224006
#
# Disc length: 3085 seconds
#
# Revision: 1
# Processed by: cddbd v1.5.2PL0 Copyright (c) Steve Scherf et al.
# Submitted via: jetAudio 7
#
DISCID=210c0b15
DTITLE=Chet Atkins - Chet Atkins At Home ... Plus
DYEAR=1900
DGENRE=Instrumental
TTITLE0=Say "Sí Sí"
TTITLE1=Vilia
TTITLE2=Sophisticated Lady
TTITLE3=Ay Ay Ay
TTITLE4=Nagasaki
TTITLE5=Yankee Doodle Dixie
TTITLE6=April In Portugal
TTITLE7=Jungle Drums
TTITLE8=In The Chapel In The Moonlight
TTITLE9=Martha
TTITLE10=Czardas
TTITLE11=You're Just In Love
TTITLE12=Don't Blame Me
TTITLE13=Muskrat Ramble
TTITLE14=Yankee Doodle Dixie (EP-Version)
TTITLE15=Asleep In The Deep
TTITLE16=Out Of Nowhere
TTITLE17=Even Tho'
TTITLE18=When Day Is Done
TTITLE19=I'll Be With You In Apple Blossom Time
TTITLE20=Swanee River
EXTD=
EXTT0=
EXTT1=
EXTT2=
EXTT3=
EXTT4=
EXTT5=
EXTT6=
EXTT7=
EXTT8=
EXTT9=
EXTT10=
EXTT11=
EXTT12=
EXTT13=
EXTT14=
EXTT15=
EXTT16=
EXTT17=
EXTT18=
EXTT19=
EXTT20=
PLAYORDER=
